<?xml version="1.0" encoding="iso-8859-1"?>
<!-- Uploaded to: SVG Repo, www.svgrepo.com, Generator: SVG Repo Mixer Tools -->
<svg height="800px" width="800px" version="1.1" id="Layer_1" xmlns="http://www.w3.org/2000/svg" xmlns:xlink="http://www.w3.org/1999/xlink" 
	 viewBox="0 0 512 512" xml:space="preserve">
<path style="fill:#E6E6E6;" d="M298.288,24.756v82.733c-13.663-4.52-27.811-6.882-42.282-6.882c-14.757,0-29.166,2.464-43.078,7.147
	V24.756C212.929,24.756,298.288,24.756,298.288,24.756z"/>
<path style="fill:#CCCCCC;" d="M229.504,23.513h-16.576v82.998c5.452-1.835,10.981-3.317,16.576-4.456L229.504,23.513
	L229.504,23.513z"/>
<path style="fill:#F95428;" d="M159.072,115.909c-5.619,3.033-11.077,6.328-16.373,9.846c-5.507,3.643-10.828,7.546-15.951,11.686
	c-5.582,4.488-10.94,9.274-16.038,14.309l-38.884-46.606c-4.246-5.089-3.561-12.655,1.529-16.898l5.74-4.785l15.105-12.619
	l6.876-5.734c5.087-4.242,12.651-3.558,16.894,1.529L159.072,115.909z"/>
<path style="fill:#E54728;" d="M142.699,125.756c-5.507,3.643-10.828,7.546-15.951,11.686L79.096,83.461l15.105-12.619
	L142.699,125.756z"/>
<path style="fill:#E6E6E6;" d="M154.721,111.558c17.989-9.747,37.558-16.97,58.208-21.209c13.912-2.859,28.321-4.364,43.078-4.364
	c14.471,0,28.619,1.442,42.282,4.202c97.382,19.606,170.719,105.649,170.719,208.812C469.008,416.632,373.64,512,256.006,512
	C138.36,512,42.993,416.632,42.993,298.999c0-59.327,24.243-112.972,63.367-151.599C120.644,133.29,136.918,121.193,154.721,111.558
	z"/>
<path style="fill:#70E5CF;" d="M329.394,8.936v41.902c0,4.936-4.001,8.936-8.936,8.936h-22.169h-85.36h-21.262
	c-4.936,0-8.936-4.001-8.936-8.936V8.936c0-4.936,4.001-8.936,8.936-8.936h128.79C325.392,0,329.394,4.001,329.394,8.936z"/>
<path style="fill:#35D8B9;" d="M199.307,50.838V8.936c0-4.936,4.001-8.936,8.936-8.936h-16.576c-4.936,0-8.936,4.001-8.936,8.936
	v41.902c0,4.936,4.001,8.936,8.936,8.936h16.576C203.307,59.774,199.307,55.773,199.307,50.838z"/>
<path style="fill:#F95428;" d="M424.077,298.999H256.006V130.915c28.992,0,56.281,7.347,80.088,20.277
	C388.496,179.649,424.077,235.172,424.077,298.999z"/>
<path style="fill:#70E5CF;" d="M424.077,298.999c0,92.819-75.252,168.071-168.071,168.071c-27.351,0-53.185-6.527-75.998-18.114
	c-54.64-27.749-92.085-84.489-92.085-149.957c0-92.831,75.252-168.084,168.084-168.084v168.084L424.077,298.999L424.077,298.999z"/>
<path style="fill:#35D8B9;" d="M209.845,448.956c-54.64-27.749-92.085-84.489-92.085-149.957
	c0-82.648,59.649-151.362,138.246-165.442v-2.642c-92.831,0-168.084,75.252-168.084,168.084c0,65.468,37.446,122.209,92.085,149.957
	c22.813,11.587,48.647,18.114,75.998,18.114c5.008,0,9.961-0.232,14.858-0.661C249.059,464.485,228.448,458.405,209.845,448.956z"/>
<path style="fill:#B3B3B3;" d="M256.006,473.908c-96.452,0-174.921-78.464-174.921-174.909c0-96.452,78.47-174.921,174.921-174.921
	c96.445,0,174.909,78.47,174.909,174.921C430.915,395.444,352.452,473.908,256.006,473.908z M256.006,137.754
	C167.095,137.754,94.76,210.088,94.76,299c0,88.904,72.336,161.234,161.246,161.234c88.905,0,161.234-72.329,161.234-161.234
	C417.24,210.088,344.91,137.754,256.006,137.754z"/>
<g>
	<circle style="fill:#FFFFFF;" cx="372.618" cy="366.315" r="9.324"/>
	<circle style="fill:#FFFFFF;" cx="323.324" cy="415.609" r="9.324"/>
	<circle style="fill:#FFFFFF;" cx="256.004" cy="433.648" r="9.324"/>
	<circle style="fill:#FFFFFF;" cx="256.004" cy="166.219" r="9.324"/>
	<circle style="fill:#FFFFFF;" cx="188.671" cy="415.609" r="9.324"/>
	<circle style="fill:#FFFFFF;" cx="139.389" cy="366.315" r="9.324"/>
	<circle style="fill:#FFFFFF;" cx="121.35" cy="298.995" r="9.324"/>
	<circle style="fill:#FFFFFF;" cx="388.78" cy="298.995" r="9.324"/>
	<circle style="fill:#FFFFFF;" cx="139.389" cy="231.674" r="9.324"/>
	<circle style="fill:#FFFFFF;" cx="188.671" cy="182.381" r="9.324"/>
	<circle style="fill:#FFFFFF;" cx="323.324" cy="182.381" r="9.324"/>
	<circle style="fill:#FFFFFF;" cx="372.618" cy="231.674" r="9.324"/>
</g>
</svg>